<svg width="16" height="22" viewBox="0 0 16 22" fill="none" xmlns="http://www.w3.org/2000/svg">
<path fill-rule="evenodd" clip-rule="evenodd" d="M0 8.16206C0 12.5165 5.2362 22 8 22C10.7638 22 16 12.5165 16 8.16206C16 3.65934 12.4235 0 8 0C3.57653 0 0 3.65934 0 8.16206ZM11.3774 15.581C9.97421 18.1223 8.39916 20 8 20C7.60084 20 6.02579 18.1223 4.62264 15.581C3.06358 12.7573 2 9.7993 2 8.16206C2 4.75379 4.69148 2 8 2C11.3085 2 14 4.75379 14 8.16206C14 9.7993 12.9364 12.7573 11.3774 15.581ZM8 12C5.79086 12 4 10.2091 4 8C4 5.79086 5.79086 4 8 4C10.2091 4 12 5.79086 12 8C12 10.2091 10.2091 12 8 12ZM10 8C10 9.10457 9.10457 10 8 10C6.89543 10 6 9.10457 6 8C6 6.89543 6.89543 6 8 6C9.10457 6 10 6.89543 10 8Z" fill="black"/>
</svg>
