<svg width="26" height="25" viewBox="0 0 26 25" fill="none" xmlns="http://www.w3.org/2000/svg">
<path fill-rule="evenodd" clip-rule="evenodd" d="M7 11.9366V5.9683H14.5974C12.2853 12.3717 11.77 17.0139 13.2929 20.1857L13.3629 20.3223C15.5933 24.4129 19.774 25.007 24.4203 22.5228C25.8797 21.7426 26.4269 19.9332 25.6425 18.4815C24.858 17.0298 23.0391 16.4855 21.5797 17.2658C19.6202 18.3135 19.104 18.2801 18.6767 17.5472C17.8967 15.7627 18.79 11.1332 21.7627 4.14737C22.6 2.17975 21.148 0 19 0H4C2.34315 0 1 1.33605 1 2.98415V11.9366C1 13.5847 2.34315 14.9207 4 14.9207C5.65685 14.9207 7 13.5847 7 11.9366ZM8 21C8 23.2091 6.20914 25 4 25C1.79086 25 0 23.2091 0 21C0 18.7909 1.79086 17 4 17C6.20914 17 8 18.7909 8 21Z" fill="white"/>
</svg>
