<svg width="18" height="21" viewBox="0 0 18 21" fill="none" xmlns="http://www.w3.org/2000/svg">
<path fill-rule="evenodd" clip-rule="evenodd" d="M9.00001 10C6.23858 10 4.00001 7.76142 4.00001 5C4.00001 2.23858 6.23858 0 9.00001 0C11.7614 0 14 2.23858 14 5C14 7.76142 11.7614 10 9.00001 10ZM9.00001 8C10.6569 8 12 6.65685 12 5C12 3.34315 10.6569 2 9.00001 2C7.34315 2 6.00001 3.34315 6.00001 5C6.00001 6.65685 7.34315 8 9.00001 8ZM0.977676 20.9998C1.52982 21.0121 1.98742 20.5745 1.99976 20.0223C2.12226 14.5373 4.37763 13 8.99995 13C13.8804 13 16.1174 14.5181 15.9954 19.9777C15.9831 20.5298 16.4207 20.9874 16.9729 20.9998C17.525 21.0121 17.9826 20.5745 17.9949 20.0223C18.141 13.4819 15.0479 11 8.99995 11C3.22369 11 0.145765 13.4627 0.000254371 19.9777C-0.0120777 20.5298 0.425529 20.9874 0.977676 20.9998Z" fill="black"/>
</svg>
